<?xml version="1.0" encoding="utf-8"?>
<!-- Generator: Adobe Illustrator 28.1.0, SVG Export Plug-In . SVG Version: 6.00 Build 0)  -->
<svg version="1.1" id="Layer_1" xmlns="http://www.w3.org/2000/svg" xmlns:xlink="http://www.w3.org/1999/xlink" x="0px" y="0px"
	 viewBox="0 0 595.28 841.89" style="enable-background:new 0 0 595.28 841.89;" xml:space="preserve">
<style type="text/css">
	.st0{fill:none;}
</style>
<path class="st0" d="M-0.14,26.12h587.79v150.61H-0.14V26.12z"/>
<path d="M22.15,70.25v-3.29h29.05v3.29H38.5v36.77h-3.66V70.25H22.15z"/>
<path d="M62.19,88.24v18.78H58.7V66.96h3.48v14.73h0.31c0.7-1.55,1.79-2.79,3.27-3.72c1.49-0.93,3.36-1.39,5.63-1.39
	c2.03,0,3.82,0.42,5.36,1.25c1.54,0.83,2.74,2.07,3.6,3.7s1.29,3.64,1.29,6.02v19.46h-3.5V87.77c0-2.48-0.69-4.43-2.07-5.85
	c-1.37-1.43-3.22-2.15-5.55-2.15c-1.6,0-3.03,0.34-4.28,1.02c-1.25,0.68-2.24,1.66-2.97,2.93C62.54,84.99,62.19,86.5,62.19,88.24z"
	/>
<path d="M102.96,107.65c-2.8,0-5.23-0.65-7.28-1.96c-2.05-1.32-3.63-3.14-4.75-5.46c-1.11-2.33-1.66-5.02-1.66-8.06
	c0-3.03,0.55-5.71,1.66-8.06c1.12-2.36,2.67-4.21,4.64-5.54c1.98-1.34,4.27-2.01,6.87-2.01c1.63,0,3.2,0.3,4.71,0.9
	c1.51,0.59,2.87,1.49,4.07,2.72c1.21,1.21,2.17,2.74,2.88,4.6c0.7,1.84,1.06,4.02,1.06,6.53v1.72H91.68v-3.07h19.91
	c0-1.93-0.39-3.66-1.17-5.2c-0.77-1.55-1.85-2.78-3.23-3.68c-1.37-0.9-2.95-1.35-4.75-1.35c-1.9,0-3.58,0.51-5.03,1.53
	c-1.45,1.02-2.58,2.36-3.4,4.03c-0.81,1.67-1.22,3.49-1.23,5.48v1.84c0,2.39,0.41,4.47,1.23,6.26c0.83,1.77,2.01,3.15,3.54,4.13
	c1.53,0.98,3.33,1.47,5.42,1.47c1.42,0,2.67-0.22,3.74-0.66c1.08-0.44,1.99-1.04,2.72-1.78c0.74-0.76,1.3-1.58,1.68-2.48l3.31,1.08
	c-0.46,1.26-1.21,2.43-2.25,3.5c-1.03,1.07-2.32,1.93-3.87,2.58C106.74,107.33,104.97,107.65,102.96,107.65z"/>
<path d="M262.96,107.02V66.96h23.18v3.29h-19.52v15.08h17.7v3.29h-17.7v18.41H262.96z"/>
<path d="M302.9,107.7c-1.81,0-3.47-0.35-4.97-1.06c-1.5-0.72-2.69-1.75-3.58-3.09c-0.89-1.36-1.33-3-1.33-4.93
	c0-1.49,0.28-2.74,0.84-3.76c0.56-1.02,1.36-1.85,2.39-2.5c1.03-0.65,2.25-1.17,3.66-1.55c1.41-0.38,2.96-0.67,4.65-0.88
	c1.68-0.21,3.1-0.39,4.26-0.55c1.17-0.16,2.07-0.4,2.68-0.74c0.61-0.34,0.92-0.89,0.92-1.64v-0.7c0-2.05-0.61-3.66-1.84-4.83
	c-1.21-1.19-2.96-1.78-5.24-1.78c-2.16,0-3.93,0.48-5.3,1.43c-1.36,0.95-2.31,2.07-2.86,3.36l-3.31-1.19
	c0.68-1.64,1.62-2.95,2.82-3.93c1.2-0.99,2.54-1.7,4.03-2.13c1.49-0.44,2.99-0.67,4.52-0.67c1.15,0,2.34,0.15,3.58,0.45
	c1.25,0.3,2.41,0.82,3.48,1.56c1.07,0.73,1.94,1.75,2.6,3.07c0.67,1.3,1,2.96,1,4.97v20.4h-3.48v-4.75h-0.22
	c-0.42,0.89-1.04,1.75-1.86,2.58c-0.82,0.83-1.85,1.52-3.09,2.05C306.02,107.44,304.57,107.7,302.9,107.7z M303.37,104.52
	c1.85,0,3.46-0.41,4.81-1.23c1.36-0.82,2.4-1.91,3.13-3.27c0.74-1.37,1.11-2.88,1.11-4.52v-4.34c-0.26,0.25-0.7,0.47-1.31,0.67
	c-0.6,0.2-1.3,0.37-2.09,0.53c-0.78,0.14-1.57,0.27-2.35,0.37c-0.78,0.1-1.49,0.2-2.11,0.27c-1.69,0.21-3.14,0.53-4.34,0.98
	s-2.12,1.06-2.76,1.84c-0.64,0.77-0.96,1.76-0.96,2.97c0,1.83,0.65,3.24,1.96,4.24C299.76,104.02,301.4,104.52,303.37,104.52z"/>
<path d="M325.17,107.02V76.98h3.38v4.62h0.31c0.6-1.55,1.6-2.77,2.99-3.66c1.41-0.9,3.1-1.35,5.07-1.35c2.07,0,3.78,0.49,5.11,1.47
	c1.34,0.96,2.35,2.29,3.01,3.99h0.25c0.68-1.67,1.78-2.99,3.31-3.97c1.54-0.99,3.4-1.49,5.59-1.49c2.79,0,4.99,0.88,6.61,2.64
	c1.62,1.75,2.43,4.3,2.43,7.67v20.13h-3.48V86.89c0-2.37-0.61-4.15-1.82-5.34c-1.21-1.19-2.81-1.78-4.79-1.78
	c-2.29,0-4.06,0.7-5.3,2.11c-1.24,1.41-1.86,3.19-1.86,5.36v19.77h-3.56V86.58c0-2.03-0.57-3.68-1.7-4.93
	c-1.13-1.25-2.73-1.88-4.79-1.88c-1.38,0-2.63,0.34-3.74,1.02c-1.1,0.68-1.96,1.62-2.6,2.84c-0.63,1.2-0.94,2.58-0.94,4.15v19.25
	H325.17z"/>
<path d="M372.49,107.02V76.98h3.5v30.04H372.49z M374.27,71.81c-0.72,0-1.33-0.24-1.84-0.72c-0.51-0.5-0.76-1.09-0.76-1.78
	c0-0.69,0.25-1.28,0.76-1.76c0.51-0.5,1.12-0.74,1.84-0.74c0.72,0,1.33,0.25,1.84,0.74c0.51,0.48,0.76,1.07,0.76,1.76
	c0,0.69-0.25,1.28-0.76,1.78C375.6,71.57,374.98,71.81,374.27,71.81z"/>
<path d="M388.68,66.96v40.06h-3.48V66.96H388.68z"/>
<path d="M400.32,118.29c-0.69,0-1.34-0.07-1.94-0.2c-0.6-0.13-1.08-0.27-1.43-0.43l0.94-3.07c1.19,0.36,2.24,0.5,3.17,0.39
	c0.93-0.09,1.75-0.51,2.46-1.25c0.72-0.73,1.36-1.85,1.92-3.36l1.1-3.05l-11.05-30.34h3.78l8.92,25.45h0.27l8.92-25.45h3.78
	l-12.71,34.8c-0.53,1.45-1.19,2.65-1.98,3.62c-0.78,0.98-1.69,1.7-2.72,2.17C402.72,118.04,401.58,118.29,400.32,118.29z"/>
<path d="M444.17,107.02V66.96h23.18v3.29h-19.52v15.08h17.7v3.29h-17.7v18.41H444.17z"/>
<path d="M484.11,107.7c-1.81,0-3.47-0.35-4.97-1.06c-1.5-0.72-2.69-1.75-3.58-3.09c-0.89-1.36-1.33-3-1.33-4.93
	c0-1.49,0.28-2.74,0.84-3.76c0.56-1.02,1.36-1.85,2.38-2.5c1.03-0.65,2.25-1.17,3.66-1.55c1.41-0.38,2.96-0.67,4.66-0.88
	c1.68-0.21,3.11-0.39,4.26-0.55c1.17-0.16,2.07-0.4,2.68-0.74c0.61-0.34,0.92-0.89,0.92-1.64v-0.7c0-2.05-0.62-3.66-1.84-4.83
	c-1.21-1.19-2.96-1.78-5.24-1.78c-2.16,0-3.93,0.48-5.3,1.43c-1.36,0.95-2.31,2.07-2.85,3.36l-3.31-1.19
	c0.68-1.64,1.62-2.95,2.82-3.93c1.2-0.99,2.54-1.7,4.03-2.13c1.49-0.44,2.99-0.67,4.52-0.67c1.15,0,2.34,0.15,3.58,0.45
	c1.25,0.3,2.41,0.82,3.48,1.56c1.07,0.73,1.94,1.75,2.6,3.07c0.66,1.3,1,2.96,1,4.97v20.4h-3.48v-4.75h-0.22
	c-0.42,0.89-1.04,1.75-1.86,2.58c-0.82,0.83-1.85,1.52-3.09,2.05C487.24,107.44,485.78,107.7,484.11,107.7z M484.58,104.52
	c1.85,0,3.46-0.41,4.81-1.23c1.36-0.82,2.4-1.91,3.13-3.27c0.74-1.37,1.12-2.88,1.12-4.52v-4.34c-0.26,0.25-0.7,0.47-1.31,0.67
	c-0.6,0.2-1.3,0.37-2.09,0.53c-0.78,0.14-1.57,0.27-2.35,0.37c-0.78,0.1-1.48,0.2-2.11,0.27c-1.7,0.21-3.14,0.53-4.34,0.98
	s-2.12,1.06-2.76,1.84c-0.64,0.77-0.96,1.76-0.96,2.97c0,1.83,0.65,3.24,1.95,4.24C480.97,104.02,482.61,104.52,484.58,104.52z"/>
<path d="M506.38,107.02V76.98h3.38v4.62h0.25c0.6-1.51,1.64-2.73,3.13-3.66c1.5-0.94,3.19-1.41,5.08-1.41
	c0.29,0,0.61,0.01,0.96,0.02c0.35,0.01,0.65,0.03,0.88,0.04v3.54c-0.16-0.03-0.43-0.07-0.82-0.12c-0.39-0.05-0.82-0.08-1.27-0.08
	c-1.56,0-2.96,0.33-4.18,1c-1.21,0.65-2.17,1.56-2.88,2.72c-0.7,1.16-1.05,2.48-1.05,3.97v19.4H506.38z"/>
<path d="M526.01,107.02V76.98h3.39v4.62h0.31c0.6-1.55,1.6-2.77,2.99-3.66c1.41-0.9,3.1-1.35,5.06-1.35c2.07,0,3.78,0.49,5.11,1.47
	c1.34,0.96,2.35,2.29,3.01,3.99h0.25c0.68-1.67,1.78-2.99,3.3-3.97c1.54-0.99,3.4-1.49,5.59-1.49c2.79,0,4.99,0.88,6.61,2.64
	c1.62,1.75,2.43,4.3,2.43,7.67v20.13h-3.48V86.89c0-2.37-0.61-4.15-1.82-5.34c-1.21-1.19-2.81-1.78-4.79-1.78
	c-2.29,0-4.06,0.7-5.3,2.11c-1.24,1.41-1.86,3.19-1.86,5.36v19.77h-3.56V86.58c0-2.03-0.57-3.68-1.7-4.93
	c-1.14-1.25-2.73-1.88-4.79-1.88c-1.38,0-2.62,0.34-3.73,1.02c-1.09,0.68-1.96,1.62-2.6,2.84c-0.63,1.2-0.94,2.58-0.94,4.15v19.25
	H526.01z"/>
<path d="M187.42,81.66c-0.7-0.16-0.81-2.81-0.32-7.95c0.46-1.39,1.26-3.17,2.39-5.34c1.14-2.24,2.69-4.84,4.64-7.78
	c0.44-0.09,0.77-0.12,0.99-0.1c1.28,0.16,1.76,1.55,1.44,4.19c-0.85,1.05-1.71,2.14-2.57,3.26c-0.85,1.05-1.67,2.11-2.45,3.17
	C189.16,74.57,187.79,78.09,187.42,81.66z M148.82,148.02c-10.89-1.34-19.01-4.97-24.35-10.9c-4.37-5.02-6.13-10.94-5.3-17.77
	c0.94-7.69,4.88-13.56,11.81-17.63c6.24-3.71,13.03-5.16,20.37-4.33c6.12,0.75,10.73,2.91,13.84,6.47c2.71,3.22,3.81,6.9,3.31,11.03
	c-0.52,4.2-2.45,7.61-5.81,10.23c-3.82,2.85-8.36,3.96-13.63,3.31c-0.64-0.08-0.95-0.22-0.92-0.44c0.05-0.43,0.4-0.64,1.05-0.63
	c2.34-0.22,4.46-0.68,6.35-1.39c1.96-0.7,3.68-1.72,5.14-3.05c2.74-2.34,4.33-5.25,4.76-8.74c0.47-3.84-0.53-7.15-3.01-9.91
	c-2.52-2.98-6.13-4.76-10.83-5.34c-6.41-0.79-12.29,0.62-17.64,4.23c-5.81,3.77-9.13,9.07-9.97,15.9
	c-0.82,6.69,0.55,12.31,4.11,16.87c4.09,5.56,10.83,8.92,20.22,10.07c9.18,1.13,17.21-0.67,24.07-5.39
	c7.48-5.01,11.76-11.96,12.86-20.86c0.8-6.48-0.94-12.94-5.21-19.39l-10.17-13.39c-1.86-2.47-3.16-4.83-3.9-7.09
	c-0.65-2.32-0.86-4.48-0.61-6.47c0.54-4.41,2.68-7.73,6.42-9.94c3.6-2.23,7.57-3.08,11.91-2.55c1.71,0.21,3.39,0.67,5.03,1.38
	c1.65,0.71,2.43,1.42,2.34,2.13c-0.04,0.36-0.28,0.51-0.71,0.46c-0.21-0.03-1.03-0.45-2.44-1.28c-1.15-0.65-2.36-1.05-3.65-1.21
	c-3.2-0.39-6.19,0.43-8.97,2.47c-2.72,2.12-4.27,4.75-4.65,7.88c-0.44,3.56,0.8,7.32,3.71,11.29l9.65,11.48
	c3.09,3.63,5.23,7.43,6.4,11.41c1.25,3.91,1.63,7.93,1.12,12.06c-1.17,9.54-6.26,17.15-15.27,22.84
	C167.78,147.16,158.64,149.22,148.82,148.02z M178.85,116.15c-0.37,0.1-0.53-0.14-0.46-0.71c-0.07-3.55-1.06-7.28-2.96-11.2
	c-0.27,1.05-0.64,2.23-1.09,3.55c-1.38,0.05-2.53-0.56-3.46-1.83c-0.12-0.23-0.25-0.57-0.42-1.03c-0.09-0.44-0.1-0.95-0.03-1.52
	l0.09-0.75c0.1-0.78,0.27-1.3,0.52-1.56c1.36,1.25,2.56,1.83,3.58,1.74c-1.35-2.55-2.97-4.92-4.87-7.1
	c-1.89-2.26-3.99-4.32-6.28-6.19c-4.81-3.77-9.21-5.9-13.2-6.39c-4.27-0.52-7.44,0.89-9.52,4.25c0.85-0.47,1.67-0.66,2.45-0.57
	c0.85,0.1,1.64,0.45,2.36,1.05c1.3,1.17,1.84,2.39,1.61,3.67c-0.87-0.54-1.84-0.88-2.91-1.01c-1.99-0.24-3.56,0.43-4.69,2.03
	c-0.63-1.31-0.9-2.39-0.79-3.24c0.13-1.07,0.79-2.32,1.98-3.77c2.48-3.16,5.9-4.48,10.24-3.95c6.48,0.8,12.78,4.82,18.89,12.07
	c3.17,3.57,5.66,7.16,7.46,10.78c1.8,3.55,2.49,7.1,2.05,10.66l-0.04,0.32C179.33,115.81,179.15,116.05,178.85,116.15z"/>
<path d="M199.2,102.42c-1.36,0-2.04-0.99-2.04-2.97c0-0.51,0.05-1.08,0.17-1.71c0.11-0.62,0.26-1.29,0.44-1.98
	c0.37-1.29,0.92-2.74,1.65-4.35c1.1-2.28,2.02-3.41,2.75-3.41c0.7,0,1.27,0.39,1.71,1.16c0.29-0.11,0.53-0.17,0.72-0.17
	c1.03,0,1.54,0.77,1.54,2.31c0,0.66-0.13,1.43-0.39,2.31c-0.26,0.88-0.7,1.98-1.32,3.3c0.92,0.84,1.82,1.27,2.7,1.27
	c0.7,0,1.36-0.17,1.98-0.5c0.62-0.37,1.32-1.07,2.09-2.09c0.07-0.07,0.18-0.11,0.33-0.11c0.11,0,0.17,0.11,0.17,0.33
	c0,0.22-0.09,0.46-0.28,0.72c-0.48,0.62-1.08,1.19-1.82,1.71c-0.7,0.48-1.58,0.72-2.64,0.72c-1.06,0-2.02-0.37-2.86-1.1
	C202.71,100.89,201.07,102.42,199.2,102.42z M203.77,96.19c0.29-0.66,0.51-1.34,0.66-2.04c0.15-0.7,0.22-1.45,0.22-2.26
	c0-1.25-0.37-1.87-1.1-1.87c-0.7,0-1.05,0.68-1.05,2.04c0,0.59,0.13,1.3,0.39,2.15C203.18,95.05,203.48,95.72,203.77,96.19z
	 M200.19,100.87c0.51,0,1.16-0.5,1.93-1.49c0.33-0.4,0.61-0.81,0.83-1.21c0.22-0.44,0.37-0.73,0.44-0.88
	c-0.55-0.62-1.03-1.29-1.43-1.98c-0.4-0.7-0.64-1.41-0.72-2.15c-0.44,0.37-0.9,1.32-1.38,2.86c-0.48,1.54-0.72,2.66-0.72,3.36
	C199.15,100.38,199.49,100.87,200.19,100.87z"/>
<path d="M218.04,102.09c-2.13,0-3.8-0.62-5.01-1.87c-1.18-1.25-1.76-2.99-1.76-5.23c0-1.84,0.33-3.64,0.99-5.4
	c-1.1,0-1.96-0.11-2.59-0.33c-1.03-0.22-1.54-0.61-1.54-1.16c0-0.22,0.17-0.33,0.5-0.33c0.26,0,0.55,0.02,0.88,0.06
	c0.37,0,0.79,0.02,1.27,0.06c0.51,0.04,0.95,0.07,1.32,0.11c0.37,0,0.66,0,0.88,0l1.93-4.52c0.44-1.06,0.84-1.93,1.21-2.59
	c0.37-0.66,0.66-1.12,0.88-1.38c0.55-0.59,1.28-0.88,2.2-0.88c0.88,0,1.32,0.18,1.32,0.55l-1.93,3.03c-0.7,1.1-1.32,2.15-1.87,3.14
	c-0.51,0.99-0.97,1.93-1.38,2.81c2.28,0,4.09,0,5.45,0c1.36-0.04,2.28-0.06,2.75-0.06h0.44c0.44,0,0.66,0.06,0.66,0.17
	c0,0.22-0.44,0.42-1.32,0.61c-1.58,0.18-3.07,0.33-4.46,0.44c-1.4,0.11-2.72,0.17-3.97,0.17c-0.37,0.95-0.68,1.96-0.94,3.03
	c-0.22,1.03-0.33,2.02-0.33,2.97c0,1.43,0.33,2.68,0.99,3.75c0.66,1.06,1.84,1.6,3.53,1.6c2.02,0,3.62-0.48,4.79-1.43
	c1.21-0.99,2.44-2.26,3.69-3.8c0.18-0.22,0.35-0.33,0.5-0.33c0.11,0,0.17,0.09,0.17,0.28c0,0.26-0.15,0.59-0.44,0.99
	c-1.58,2.02-3.07,3.45-4.46,4.3C221.04,101.66,219.59,102.09,218.04,102.09z"/>
<path d="M228.14,102.42c-1.36,0-2.04-0.99-2.04-2.97c0-0.51,0.06-1.08,0.17-1.71c0.11-0.62,0.26-1.29,0.44-1.98
	c0.37-1.29,0.92-2.74,1.65-4.35c1.1-2.28,2.02-3.41,2.75-3.41c0.7,0,1.27,0.39,1.71,1.16c0.29-0.11,0.53-0.17,0.72-0.17
	c1.03,0,1.54,0.77,1.54,2.31c0,0.66-0.13,1.43-0.39,2.31c-0.26,0.88-0.7,1.98-1.32,3.3c0.92,0.84,1.82,1.27,2.7,1.27
	c0.7,0,1.36-0.17,1.98-0.5c0.62-0.37,1.32-1.07,2.09-2.09c0.07-0.07,0.18-0.11,0.33-0.11c0.11,0,0.17,0.11,0.17,0.33
	c0,0.22-0.09,0.46-0.28,0.72c-0.48,0.62-1.08,1.19-1.82,1.71c-0.7,0.48-1.58,0.72-2.64,0.72c-1.06,0-2.02-0.37-2.86-1.1
	C231.65,100.89,230.01,102.42,228.14,102.42z M232.71,96.19c0.29-0.66,0.51-1.34,0.66-2.04c0.15-0.7,0.22-1.45,0.22-2.26
	c0-1.25-0.37-1.87-1.1-1.87c-0.7,0-1.05,0.68-1.05,2.04c0,0.59,0.13,1.3,0.39,2.15C232.12,95.05,232.42,95.72,232.71,96.19z
	 M229.13,100.87c0.51,0,1.16-0.5,1.93-1.49c0.33-0.4,0.61-0.81,0.83-1.21c0.22-0.44,0.37-0.73,0.44-0.88
	c-0.55-0.62-1.03-1.29-1.43-1.98c-0.4-0.7-0.64-1.41-0.72-2.15c-0.44,0.37-0.9,1.32-1.38,2.86c-0.48,1.54-0.72,2.66-0.72,3.36
	C228.08,100.38,228.43,100.87,229.13,100.87z"/>
</svg>
